<?xml version="1.0" encoding="UTF-8" standalone="no"?>
<!-- Creator: CorelDRAW -->

<svg
   xmlns:dc="http://purl.org/dc/elements/1.1/"
   xmlns:cc="http://creativecommons.org/ns#"
   xmlns:rdf="http://www.w3.org/1999/02/22-rdf-syntax-ns#"
   xmlns:svg="http://www.w3.org/2000/svg"
   xmlns="http://www.w3.org/2000/svg"
   xmlns:sodipodi="http://sodipodi.sourceforge.net/DTD/sodipodi-0.dtd"
   xmlns:inkscape="http://www.inkscape.org/namespaces/inkscape"
   xml:space="preserve"
   width="563"
   height="340"
   style="fill-rule:evenodd"
   viewBox="0 0 158.89156 95.955568"
   id="svg2"
   version="1.1"
   inkscape:version="0.48.0 r9654"
   sodipodi:docname="logo_cimav.svg"><metadata
   id="metadata21"><rdf:RDF><cc:Work
       rdf:about=""><dc:format>image/svg+xml</dc:format><dc:type
         rdf:resource="http://purl.org/dc/dcmitype/StillImage" /></cc:Work></rdf:RDF></metadata><sodipodi:namedview
   pagecolor="#ffffff"
   bordercolor="#666666"
   borderopacity="1"
   objecttolerance="10"
   gridtolerance="10"
   guidetolerance="10"
   inkscape:pageopacity="0"
   inkscape:pageshadow="2"
   inkscape:window-width="1920"
   inkscape:window-height="1003"
   id="namedview19"
   showgrid="false"
   inkscape:zoom="0.31717172"
   inkscape:cx="-17.914013"
   inkscape:cy="534.41083"
   inkscape:window-x="0"
   inkscape:window-y="24"
   inkscape:window-maximized="1"
   inkscape:current-layer="svg2" />
 <defs
   id="defs4">
  <style
   type="text/css"
   id="style6">
   
    .fil3 {fill:#DA251D}
    .fil2 {fill:#2B3D78}
    .fil0 {fill:#D52E26}
    .fil1 {fill:#2C3D78}
   
  </style>
 </defs>
 <g
   id="Capa_x0020_1"
   transform="translate(-26.334771,-35.719865)">
  <metadata
   id="CorelCorpID_0Corel-Layer" />
  <g
   id="_135379536">
   <g
   id="g11">
    <path
   id="_135381000"
   class="fil0"
   d="m 108.155,51.083 c 0.8291,-0.3337 0.6205,-1.6685 0.1118,-1.9189 L 92.9133,39.1848 c -0.6178,-0.5786 -1.3694,0.077 -1.3,0.6621 l 1.048,4.1548 c 0.1082,0.2523 0.1801,0.698 -0.2487,0.7196 -19.4044,0.6569 -41.3074,6.5208 -54.0254,22.5078 -16.1754,20.3339 -2.4176,39.8808 18.868,45.3412 0.4584,0.1687 0.9848,-0.527 0.5087,-0.9762 -3.8209,-1.6663 -6.9728,-3.6779 -9.4708,-5.934 C 43.0135,100.8919 40.0994,94.2306 41.2114,87.129 42.7913,77.0493 52.067,66.8359 68.2197,60.9476 75.298,58.3672 83.7311,55.95 91.2064,55.1682 c 0.2676,-0.0276 0.5505,0.0994 0.5224,0.4609 l -1.016,5.0526 c -0.0082,0.2986 0.2948,0.6399 0.7184,0.4626 L 108.155,51.083 z"
   inkscape:connector-curvature="0"
   style="fill:#d52e26" />
    <path
   id="_135380568"
   class="fil1"
   d="m 103.347,116.404 c -0.8201,0.3337 -0.9336,1.5944 0.0534,2.0279 l 15.2475,9.7786 c 0.6177,0.5786 1.3694,-0.077 1.3,-0.6622 l -1.0481,-4.1547 c -0.1082,-0.2523 -0.1801,-0.6981 0.2487,-0.7196 19.4045,-0.6569 41.3075,-6.5208 54.0254,-22.5079 16.1754,-20.3339 2.4176,-39.8808 -18.8679,-45.3411 -0.4584,-0.1688 -0.9849,0.527 -0.5087,0.9761 3.8208,1.6663 6.9728,3.678 9.4708,5.934 5.2796,4.7683 8.1937,11.4296 7.0817,18.5312 -1.5799,10.0796 -10.8557,20.2931 -27.0084,26.1813 -7.0782,2.5804 -15.5114,4.9977 -22.9866,5.7794 -0.2676,0.0277 -0.5505,-0.0993 -0.5224,-0.4608 l 1.0159,-5.0526 c 0.008,-0.2987 -0.2947,-0.64 -0.7184,-0.4627 L 103.347,116.404 z"
   inkscape:connector-curvature="0"
   style="fill:#2c3d78" />
   </g>
   <g
   id="g15">
    <path
   id="_135380328"
   class="fil2"
   d="m 136.344,86.0831 c -1.3358,0.9376 -2.0122,1.3796 -3.3237,2.1499 -1.4241,0.8365 -2.3277,1.2535 -2.65,1.2535 -0.0358,0 -0.0717,-0.0358 -0.0717,-0.0358 0,0 -0.0358,-0.0717 -0.0358,-0.1433 0,-0.1432 0.0717,-0.4298 0.1432,-0.7163 0.0718,-0.2864 0.1791,-0.6088 0.3224,-0.9311 l 2.1487,-5.2286 -4.2258,0 c -1.0743,2.3995 -2.3637,4.3333 -3.7604,5.6942 -1.3965,1.3609 -2.7574,2.0412 -3.9751,2.0412 -0.4297,0 -0.8236,-0.2506 -1.1101,-0.6803 -0.2507,-0.4298 -0.394,-1.0386 -0.394,-1.7548 0,-2.2562 0.9669,-4.2259 2.865,-5.8016 1.8981,-1.5757 4.2617,-2.3636 7.0192,-2.3636 0.6446,0 1.3609,0.1075 2.0413,0.2865 2.1096,0.3068 3.2116,-2.912 0.8195,-3.3574 -0.6407,-0.1193 -1.1475,-0.2127 -1.4999,-0.2597 -0.5015,-0.0715 -1.0028,-0.1074 -1.4326,-0.1074 -4.0108,0 -7.4062,1.1903 -10.2063,3.5455 -1.8042,1.5174 -2.8475,3.4838 -3.7116,5.2729 -1.5122,1.2235 -2.7711,2.1049 -4.2029,2.9639 -1.432,0.8588 -2.3278,1.2892 -2.6143,1.2892 -0.0717,0 -0.1433,-0.0718 -0.1791,-0.1433 -0.0358,-0.0716 -0.0403,-0.1941 -0.0403,-0.3372 0,0 0.0553,-0.1573 0.1477,-0.379 0.0871,-0.2091 0.2507,-0.5372 0.4297,-0.9668 l 3.4022,-7.1626 c 0.0716,-0.179 0.1791,-0.4655 0.3223,-0.7879 0.4298,-0.9311 0.6804,-1.6115 0.6804,-1.9337 0,-0.3582 -0.2149,-0.7521 -0.6087,-1.0386 -0.3582,-0.2865 -0.8237,-0.4298 -1.3251,-0.4298 -0.7521,0 -1.6832,0.3223 -2.7576,0.8953 -1.0386,0.5731 -2.1845,1.4683 -3.3663,2.5427 l -5.6225,4.8705 1.6832,-4.1185 c 0.0358,-0.0715 0.1074,-0.2506 0.1791,-0.4298 0.4296,-1.0743 0.6445,-1.8263 0.6445,-2.1845 0,-0.4298 -0.179,-0.8594 -0.5371,-1.1459 -0.3223,-0.2865 -0.7521,-0.4298 -1.2177,-0.4298 -0.7162,0 -1.6473,0.3223 -2.6501,0.8953 -1.0027,0.5731 -2.1845,1.4325 -3.4736,2.5427 l -5.6942,4.8347 c 0.8991,-1.8768 1.7982,-3.7536 2.6974,-5.6304 1.3482,-2.7893 -3.4072,-3.4431 -4.438,-0.0257 l -0.3366,0.7498 c -0.0716,0.2148 -0.7878,0.931 -2.0055,2.0413 -1.2175,1.1101 -1.9611,1.8115 -3.8275,3.3458 -1.4367,1.2118 -2.91,2.3045 -4.3376,3.1719 -1.4014,0.8515 -2.2919,1.2892 -2.5785,1.2892 -0.0358,0 -0.1073,-0.0716 -0.1432,-0.1432 0,-0.0716 -0.0358,-0.2149 -0.0358,-0.3582 l 0.6088,-1.3249 c 1.6115,-3.5932 2.3721,-5.3476 3.9836,-8.9407 0.8402,-2.4668 -3.2472,-3.1395 -4.3333,0 l -0.5099,0.9545 c -0.0715,0.2148 -0.7877,0.8953 -2.0054,2.0056 -1.2175,1.1101 -2.8292,2.4709 -4.694,4.0143 -0.8418,0.7816 -2.7273,2.1022 -4.5718,3.1481 -2.4063,1.3645 -4.5884,1.8756 -5.5962,1.7906 -0.9278,-0.0784 -1.7191,-0.2865 -2.2205,-0.8596 -0.5013,-0.5371 -0.7878,-1.3608 -0.7878,-2.3993 0,-1.8622 0.6804,-3.6886 2.0413,-5.3719 1.3251,-1.6832 2.6501,-2.5426 3.9035,-2.5426 0.5014,0 0.8953,0.1433 1.146,0.3581 0.2149,0.2148 0.4522,0.5835 0.3582,1.0027 -0.8618,3.844 3.8051,3.3371 4.4049,0.215 0.0902,-0.4694 0.1791,-0.9312 0.1791,-1.361 0,-1.0385 -0.4298,-1.8979 -1.2177,-2.471 -0.7879,-0.573 -1.9339,-0.8953 -3.3663,-0.8953 -3.2947,0 -6.2314,1.1818 -8.6666,3.4738 -2.4353,2.2919 -3.6528,5.0854 -3.6528,8.2726 0,2.1845 0.5729,3.8677 1.7189,4.9421 1.1103,1.0744 2.8292,1.6474 5.0495,1.6474 1.719,0 3.5457,-0.3941 5.3719,-1.1819 1.8263,-0.7877 3.4472,-1.724 5.9183,-3.5839 l 1.2084,-0.8927 c 0.4312,-0.3194 0.8953,-0.716 1.3608,-1.1458 l -0.7163,1.6472 c -0.2148,0.6088 -0.3939,1.2533 -0.5371,1.8263 -0.1074,0.5731 -0.179,1.1102 -0.179,1.4685 0,0.5728 0.2148,1.0384 0.6088,1.3607 0.3581,0.3224 0.9311,0.5014 1.6473,0.5014 1.1819,0 2.6834,-0.4739 4.4765,-1.3608 1.7503,-0.8658 4.2803,-2.5834 6.5987,-4.3357 0.4238,-0.3152 0.886,-0.7138 1.3873,-1.1076 l -1.7547,3.617 c -0.1075,0.2864 -0.2149,0.6088 -0.2865,0.8236 -0.0358,0.215 -0.0716,0.4656 -0.0716,0.6805 0,0.4656 0.1432,0.8953 0.4297,1.2534 0.2506,0.3223 0.6089,0.5014 0.967,0.5014 1.0384,0 3.1156,-1.54 6.1238,-4.5839 3.0082,-3.0083 5.6225,-5.4794 7.8071,-7.2699 l -2.8293,6.2313 -0.0357,0.0357 c -0.8595,1.9697 -1.2893,3.2232 -1.2893,3.6887 0,0.4298 0.1791,0.8595 0.4656,1.1819 0.2866,0.2864 0.7163,0.4656 1.146,0.4656 0.6805,0 2.471,-1.4684 5.3361,-4.3333 2.8291,-2.8651 5.5866,-5.3003 8.2367,-7.2699 l -3.1156,6.8759 c -0.3581,0.8236 -0.6089,1.4682 -0.7163,1.898 -0.1075,0.4298 -0.1791,0.8238 -0.1791,1.1818 0,0.5372 0.2149,1.0027 0.6446,1.325 0.4298,0.2866 1.0029,0.4656 1.719,0.4656 1.1461,0 2.6112,-0.4732 4.405,-1.3608 1.7508,-0.8665 3.1556,-1.8227 5.45,-3.5809 0.1376,1.5026 0.5777,2.6867 1.2827,3.5092 0.8594,1.0028 2.1486,1.54 3.7961,1.54 0.8594,0 1.7547,-0.1791 2.5784,-0.5372 0.8237,-0.3582 1.8264,-1.0028 2.9725,-1.8981 l 0,0.2865 c 0,0.7879 0.1431,1.3967 0.3939,1.6832 0.2507,0.2865 0.7162,0.4656 1.3608,0.4656 0.9311,0 2.3248,-0.4733 4.1184,-1.3609 1.6516,-0.8172 2.8973,-1.5587 4.9421,-3.0145 l 2e-4,0.0402 1.2084,-0.8926 c 0.4312,-0.3196 0.8952,-0.4952 1.3607,-0.925 l -0.7162,1.6473 c -0.2149,0.6088 -0.394,1.2533 -0.5372,1.8262 -0.1073,0.5731 -0.179,1.1102 -0.179,1.4685 0,0.5728 0.2148,1.0384 0.6088,1.3608 0.3581,0.3224 0.9311,0.5014 1.6474,0.5014 1.1818,0 2.6834,-0.4739 4.4765,-1.3609 3.798,-1.7765 7.3084,-4.1259 10.9918,-7.7536 0.452,-0.4452 1.01,-0.8947 1.3233,-1.3815 0.3971,0.1788 1.3929,0.6244 1.8848,0.7211 0.6677,0.1315 1.3631,0.1224 1.9736,-0.0129 0.6037,-0.1003 1.3261,-0.4327 2.1044,-0.8634 1.9999,-0.8633 1.2349,-4.3945 -1.4206,-3.1881 -0.793,0.357 -1.4896,0.2842 -2.2483,-0.0956 0.2323,-0.5358 0.392,-1.0948 0.4887,-1.5867 0.1177,-0.5974 0.0388,-1.1238 -0.1733,-1.5306 -0.2119,-0.4066 -0.634,-0.6723 -1.1259,-0.7691 -1.1596,-0.2282 -2.2031,0.2103 -3.1892,1.9593 -1.9947,3.5383 -4.4732,7.1486 -8.783,9.4158 -1.4014,0.8515 -2.2918,1.2893 -2.5784,1.2893 -0.0359,0 -0.1074,-0.0717 -0.1432,-0.1432 0,-0.0717 -0.0358,-0.215 -0.0358,-0.3583 l 0.6087,-1.3249 c 1.6116,-3.5932 2.9273,-6.347 4.5389,-9.9402 0.9064,-2.5164 -3.1092,-3.2246 -4.1149,-0.4914 l -1.2835,2.4454 c -0.0716,0.2149 -0.7877,0.8953 -2.0054,2.0057 -1.2087,1.102 -2.8058,2.451 -4.6534,3.9804 l 0,-0.0493 z"
   inkscape:connector-curvature="0"
   style="fill:#2b3d78" />
    <circle
   id="_135379704"
   class="fil3"
   cx="78.684601"
   cy="70.897003"
   r="2.6206999"
   d="m 81.305301,70.897003 c 0,1.447373 -1.173328,2.6207 -2.6207,2.6207 -1.447373,0 -2.6207,-1.173327 -2.6207,-2.6207 0,-1.447372 1.173327,-2.6207 2.6207,-2.6207 1.447372,0 2.6207,1.173328 2.6207,2.6207 z"
   sodipodi:cx="78.684601"
   sodipodi:cy="70.897003"
   sodipodi:rx="2.6206999"
   sodipodi:ry="2.6206999"
   style="fill:#da251d" />
   </g>
  </g>
 </g>
</svg>